<svg width="13" height="13" viewBox="0 0 16 16" fill="none" xmlns="http://www.w3.org/2000/svg">
<path d="M4.66659 14.6666H2.66659C2.31296 14.6666 1.97382 14.5262 1.72378 14.2761C1.47373 14.0261 1.33325 13.6869 1.33325 13.3333V8.66665C1.33325 8.31302 1.47373 7.97389 1.72378 7.72384C1.97382 7.47379 2.31296 7.33331 2.66659 7.33331H4.66659M9.33325 5.99998V3.33331C9.33325 2.80288 9.12254 2.29417 8.74747 1.9191C8.37239 1.54403 7.86369 1.33331 7.33325 1.33331L4.66659 7.33331V14.6666H12.1866C12.5081 14.6703 12.8202 14.5576 13.0652 14.3493C13.3102 14.1411 13.4717 13.8513 13.5199 13.5333L14.4399 7.53331C14.4689 7.34222 14.456 7.1471 14.4021 6.96148C14.3483 6.77586 14.2547 6.60418 14.1278 6.45832C14.001 6.31247 13.844 6.19593 13.6676 6.11679C13.4913 6.03765 13.2999 5.99779 13.1066 5.99998H9.33325Z" stroke="currentColor" stroke-width="1.33333" stroke-linecap="round" stroke-linejoin="round"/>
</svg>
