<svg width="12" height="15" viewBox="0 0 14 17" fill="none" xmlns="http://www.w3.org/2000/svg">
<path d="M13 7.16669C13 11.8334 7 15.8334 7 15.8334C7 15.8334 1 11.8334 1 7.16669C1 5.57539 1.63214 4.04926 2.75736 2.92405C3.88258 1.79883 5.4087 1.16669 7 1.16669C8.5913 1.16669 10.1174 1.79883 11.2426 2.92405C12.3679 4.04926 13 5.57539 13 7.16669Z" stroke="currentColor" stroke-width="1.33333" stroke-linecap="round" stroke-linejoin="round"/>
<path d="M7 9.16669C8.10457 9.16669 9 8.27126 9 7.16669C9 6.06212 8.10457 5.16669 7 5.16669C5.89543 5.16669 5 6.06212 5 7.16669C5 8.27126 5.89543 9.16669 7 9.16669Z" stroke="currentColor" stroke-width="1.33333" stroke-linecap="round" stroke-linejoin="round"/>
</svg>
